<svg xmlns="http://www.w3.org/2000/svg" width="21" height="21" viewBox="0 0 21 21" fill="currentColor">
  <symbol id="floppy" fill="currentColor">
  <rect width="1.61538" height="1.61538"/>
  <rect y="1.61536" width="1.61538" height="1.61538"/>
  <rect y="3.23077" width="1.61538" height="1.61538"/>
  <rect y="4.84613" width="1.61538" height="1.61538"/>
  <rect y="6.46155" width="1.61538" height="1.61538"/>
  <rect y="8.0769" width="1.61538" height="1.61538"/>
  <rect y="9.69232" width="1.61538" height="1.61538"/>
  <rect y="11.3077" width="1.61538" height="1.61538"/>
  <rect y="12.9231" width="1.61538" height="1.61538"/>
  <rect y="14.5385" width="1.61538" height="1.61538"/>
  <rect y="16.1539" width="1.61538" height="1.61538"/>
  <rect y="17.7692" width="1.61538" height="1.61538"/>
  <rect y="19.3846" width="1.61538" height="1.61538"/>
  <rect x="17.7692" width="1.61538" height="1.61538" transform="rotate(90 17.7692 0)"/>
  <rect x="16.1539" width="1.61538" height="1.61538" transform="rotate(90 16.1539 0)"/>
  <rect x="14.5385" width="1.61538" height="1.61538" transform="rotate(90 14.5385 0)"/>
  <rect x="12.9231" width="1.61538" height="1.61538" transform="rotate(90 12.9231 0)"/>
  <rect x="11.3077" width="1.61538" height="1.61538" transform="rotate(90 11.3077 0)"/>
  <rect x="9.69232" width="1.61538" height="1.61538" transform="rotate(90 9.69232 0)"/>
  <rect x="8.0769" width="1.61538" height="1.61538" transform="rotate(90 8.0769 0)"/>
  <rect x="6.46155" width="1.61538" height="1.61538" transform="rotate(90 6.46155 0)"/>
  <rect x="4.84613" width="1.61538" height="1.61538" transform="rotate(90 4.84613 0)"/>
  <rect x="3.23077" width="1.61538" height="1.61538" transform="rotate(90 3.23077 0)"/>
  <rect x="19.3846" y="1.61536" width="1.61538" height="1.61538" transform="rotate(90 19.3846 1.61536)"/>
  <rect x="4.84613" y="3.23077" width="1.61538" height="1.61538" transform="rotate(90 4.84613 3.23077)"/>
  <rect x="4.84613" y="1.61536" width="1.61538" height="1.61538" transform="rotate(90 4.84613 1.61536)"/>
  <rect x="4.84613" y="4.84613" width="1.61538" height="1.61538" transform="rotate(90 4.84613 4.84613)"/>
  <rect x="16.1539" y="3.23077" width="1.61538" height="1.61538" transform="rotate(90 16.1539 3.23077)"/>
  <rect x="16.1539" y="1.61536" width="1.61538" height="1.61538" transform="rotate(90 16.1539 1.61536)"/>
  <rect x="16.1539" y="4.84613" width="1.61538" height="1.61538" transform="rotate(90 16.1539 4.84613)"/>
  <rect x="12.9231" y="3.23077" width="1.61538" height="1.61538" transform="rotate(90 12.9231 3.23077)"/>
  <rect x="12.9231" y="1.61536" width="1.61538" height="1.61538" transform="rotate(90 12.9231 1.61536)"/>
  <rect x="12.9231" y="4.84613" width="1.61538" height="1.61538" transform="rotate(90 12.9231 4.84613)"/>
  <rect x="16.1539" y="6.46155" width="1.61538" height="1.61538" transform="rotate(90 16.1539 6.46155)"/>
  <rect x="14.5385" y="6.46155" width="1.61538" height="1.61538" transform="rotate(90 14.5385 6.46155)"/>
  <rect x="12.9231" y="6.46155" width="1.61538" height="1.61538" transform="rotate(90 12.9231 6.46155)"/>
  <rect x="11.3077" y="6.46155" width="1.61538" height="1.61538" transform="rotate(90 11.3077 6.46155)"/>
  <rect x="9.69232" y="6.46155" width="1.61538" height="1.61538" transform="rotate(90 9.69232 6.46155)"/>
  <rect x="8.0769" y="6.46155" width="1.61538" height="1.61538" transform="rotate(90 8.0769 6.46155)"/>
  <rect x="6.46155" y="6.46155" width="1.61538" height="1.61538" transform="rotate(90 6.46155 6.46155)"/>
  <rect x="4.84613" y="6.46155" width="1.61538" height="1.61538" transform="rotate(90 4.84613 6.46155)"/>
  <rect x="17.7692" y="11.3077" width="1.61538" height="1.61538" transform="rotate(90 17.7692 11.3077)"/>
  <rect x="16.1539" y="11.3077" width="1.61538" height="1.61538" transform="rotate(90 16.1539 11.3077)"/>
  <rect x="14.5385" y="11.3077" width="1.61538" height="1.61538" transform="rotate(90 14.5385 11.3077)"/>
  <rect x="12.9231" y="11.3077" width="1.61538" height="1.61538" transform="rotate(90 12.9231 11.3077)"/>
  <rect x="11.3077" y="11.3077" width="1.61538" height="1.61538" transform="rotate(90 11.3077 11.3077)"/>
  <rect x="9.69232" y="11.3077" width="1.61538" height="1.61538" transform="rotate(90 9.69232 11.3077)"/>
  <rect x="8.0769" y="11.3077" width="1.61538" height="1.61538" transform="rotate(90 8.0769 11.3077)"/>
  <rect x="6.46155" y="11.3077" width="1.61538" height="1.61538" transform="rotate(90 6.46155 11.3077)"/>
  <rect x="4.84613" y="11.3077" width="1.61538" height="1.61538" transform="rotate(90 4.84613 11.3077)"/>
  <rect x="17.7692" y="12.9231" width="1.61538" height="1.61538" transform="rotate(90 17.7692 12.9231)"/>
  <rect x="4.84613" y="12.9231" width="1.61538" height="1.61538" transform="rotate(90 4.84613 12.9231)"/>
  <rect x="17.7692" y="14.5385" width="1.61538" height="1.61538" transform="rotate(90 17.7692 14.5385)"/>
  <rect x="4.84613" y="14.5385" width="1.61538" height="1.61538" transform="rotate(90 4.84613 14.5385)"/>
  <rect x="17.7692" y="16.1539" width="1.61538" height="1.61538" transform="rotate(90 17.7692 16.1539)"/>
  <rect x="4.84613" y="16.1539" width="1.61538" height="1.61538" transform="rotate(90 4.84613 16.1539)"/>
  <rect x="4.84613" y="17.7692" width="1.61538" height="1.61538" transform="rotate(90 4.84613 17.7692)"/>
  <rect x="17.7692" y="17.7692" width="1.61538" height="1.61538" transform="rotate(90 17.7692 17.7692)"/>
  <rect x="19.3846" y="19.3846" width="1.61538" height="1.61538" transform="rotate(90 19.3846 19.3846)"/>
  <rect x="17.7692" y="19.3846" width="1.61538" height="1.61538" transform="rotate(90 17.7692 19.3846)"/>
  <rect x="16.1539" y="19.3846" width="1.61538" height="1.61538" transform="rotate(90 16.1539 19.3846)"/>
  <rect x="14.5385" y="19.3846" width="1.61538" height="1.61538" transform="rotate(90 14.5385 19.3846)"/>
  <rect x="12.9231" y="19.3846" width="1.61538" height="1.61538" transform="rotate(90 12.9231 19.3846)"/>
  <rect x="11.3077" y="19.3846" width="1.61538" height="1.61538" transform="rotate(90 11.3077 19.3846)"/>
  <rect x="9.69232" y="19.3846" width="1.61538" height="1.61538" transform="rotate(90 9.69232 19.3846)"/>
  <rect x="8.0769" y="19.3846" width="1.61538" height="1.61538" transform="rotate(90 8.0769 19.3846)"/>
  <rect x="6.46155" y="19.3846" width="1.61538" height="1.61538" transform="rotate(90 6.46155 19.3846)"/>
  <rect x="4.84613" y="19.3846" width="1.61538" height="1.61538" transform="rotate(90 4.84613 19.3846)"/>
  <rect x="3.23077" y="19.3846" width="1.61538" height="1.61538" transform="rotate(90 3.23077 19.3846)"/>
  <rect x="21" y="21" width="1.61538" height="1.61538" transform="rotate(-180 21 21)"/>
  <rect x="21" y="19.3846" width="1.61538" height="1.61538" transform="rotate(-180 21 19.3846)"/>
  <rect x="21" y="17.7692" width="1.61538" height="1.61538" transform="rotate(-180 21 17.7692)"/>
  <rect x="21" y="16.1539" width="1.61538" height="1.61538" transform="rotate(-180 21 16.1539)"/>
  <rect x="21" y="14.5385" width="1.61538" height="1.61538" transform="rotate(-180 21 14.5385)"/>
  <rect x="21" y="12.9231" width="1.61538" height="1.61538" transform="rotate(-180 21 12.9231)"/>
  <rect x="21" y="11.3077" width="1.61538" height="1.61538" transform="rotate(-180 21 11.3077)"/>
  <rect x="21" y="9.69232" width="1.61538" height="1.61538" transform="rotate(-180 21 9.69232)"/>
  <rect x="21" y="8.0769" width="1.61538" height="1.61538" transform="rotate(-180 21 8.0769)"/>
  <rect x="21" y="6.46155" width="1.61538" height="1.61538" transform="rotate(-180 21 6.46155)"/>
  <rect x="21" y="4.84613" width="1.61538" height="1.61538" transform="rotate(-180 21 4.84613)"/>
  </symbol>
</svg>
